# xmcd
#
# Track frame offsets: 
#        150
#        10738
#        28826
#        41695
#        62825
#        81932
#        92880
#        120392
#        131220
#        148646
#        167520
#        191082
#
# Disc length: 2810 seconds
#
# Revision: 1
# Processed by: cddbd v1.5.2PL0 Copyright (c) Steve Scherf et al.
# Submitted via: ExactAudioCopy v0.99pb5
#
DISCID=a40af80c
DTITLE=Chuck Berry - Forever Gold
DYEAR=2006
DGENRE=Rock and Roll
TTITLE0=Maybellene
TTITLE1=My Ding A Ling
TTITLE2=Too Much Monkey Business
TTITLE3=Johnny B. Goode
TTITLE4=Hoochie Coochie Man
TTITLE5=Rock And Roll Music
TTITLE6=Reelin' And Rockin'
TTITLE7=Thirty Days
TTITLE8=Nadine (Is It You?)
TTITLE9=Memphis
TTITLE10=In The We Wee Hours
TTITLE11=Carol
EXTD=
EXTT0=
EXTT1=
EXTT2=
EXTT3=
EXTT4=
EXTT5=
EXTT6=
EXTT7=
EXTT8=
EXTT9=
EXTT10=
EXTT11=
PLAYORDER=
